<?xml version="1.0" encoding="UTF-8" standalone="no"?>
<svg
 xmlns="http://www.w3.org/2000/svg"
 version="1.1"
 viewBox="0 0 56.545956 42.204746"
 height="42.204746mm"
 width="56.545956mm">
<g
 transform="translate(-6.500833,-6.022627)"
 id="layer1">
<g
 transform="matrix(0.26458333,0,0,0.26458333,-75.477666,-52.077491)"
 id="g3850">
<g
 id="g3814">
<path
 d="m 349.582,244.851 c 1.874,0 3.408,-0.28 4.613,-0.841 1.2,-0.563 2.134,-1.434 2.793,-2.614 v 2.914 h 5.332 v -23.748 h -5.4 v 2.87 c -0.763,-1.166 -1.761,-2.036 -3.005,-2.612 -1.244,-0.576 -2.734,-0.863 -4.461,-0.863 -1.8,0 -3.418,0.3 -4.859,0.895 -1.441,0.598 -2.749,1.522 -3.93,2.776 -1.092,1.134 -1.933,2.454 -2.528,3.949 -0.59,1.498 -0.885,3.082 -0.885,4.751 0,3.554 1.181,6.532 3.536,8.927 2.351,2.396 5.282,3.596 8.794,3.596 z M 344.9,227.416 c 1.323,-1.315 2.921,-1.975 4.791,-1.975 1.785,0 3.344,0.696 4.672,2.083 1.333,1.389 2.002,3.047 2.002,4.977 0,1.812 -0.664,3.398 -1.987,4.751 -1.328,1.353 -2.857,2.029 -4.603,2.029 -1.909,0 -3.531,-0.671 -4.869,-2.019 -1.328,-1.345 -1.992,-3.02 -1.992,-5.021 -10e-4,-1.899 0.658,-3.507 1.986,-4.825 z"
 id="path3800" />
<path
 d="m 372.235,242.412 c 1.032,0.863 2.154,1.5 3.354,1.911 1.2,0.408 2.557,0.615 4.072,0.615 1.549,0 3.03,-0.273 4.436,-0.821 1.402,-0.546 2.651,-1.337 3.743,-2.373 1.283,-1.168 2.272,-2.555 2.97,-4.168 0.699,-1.613 1.047,-3.303 1.047,-5.073 0,-1.901 -0.389,-3.691 -1.155,-5.375 -0.772,-1.685 -1.869,-3.146 -3.295,-4.382 -1.047,-0.922 -2.238,-1.618 -3.561,-2.085 -1.323,-0.467 -2.734,-0.701 -4.229,-0.701 -1.396,0 -2.7,0.211 -3.905,0.637 -1.209,0.425 -2.375,1.074 -3.477,1.952 v -1.984 h -5.444 v 36.471 h 5.444 z m 2.135,-14.974 c 1.279,-1.331 2.828,-1.997 4.643,-1.997 2.056,0 3.762,0.662 5.114,1.987 1.357,1.323 2.031,2.985 2.031,4.987 0,1.928 -0.674,3.583 -2.021,4.965 -1.343,1.382 -2.966,2.073 -4.869,2.073 -1.928,0 -3.546,-0.679 -4.854,-2.041 -1.309,-1.36 -1.963,-3.054 -1.963,-5.083 0,-1.93 0.635,-3.558 1.919,-4.891 z"
 id="path3802" />
<path
 d="m 397.795,241.224 c 1.181,1.225 2.513,2.149 4.003,2.774 1.495,0.624 3.123,0.939 4.894,0.939 2.631,0 4.958,-0.715 6.964,-2.149 2.006,-1.432 3.511,-3.443 4.52,-6.032 h -5.956 c -0.575,0.935 -1.357,1.66 -2.346,2.181 -0.983,0.516 -2.1,0.774 -3.335,0.774 -1.854,0 -3.374,-0.492 -4.544,-1.478 -1.176,-0.986 -1.854,-2.333 -2.041,-4.047 h 19.023 c 0,-0.13 0.005,-0.327 0.02,-0.593 0.015,-0.268 0.02,-0.465 0.02,-0.595 0,-1.64 -0.182,-3.093 -0.551,-4.362 -0.364,-1.267 -0.93,-2.41 -1.691,-3.433 -1.254,-1.699 -2.774,-3.015 -4.555,-3.952 -1.785,-0.935 -3.708,-1.401 -5.769,-1.401 -1.623,0 -3.202,0.344 -4.727,1.035 -1.525,0.691 -2.892,1.68 -4.102,2.958 -1.107,1.166 -1.943,2.479 -2.519,3.942 -0.565,1.46 -0.851,3.017 -0.851,4.672 0,1.613 0.31,3.187 0.93,4.719 0.616,1.532 1.487,2.882 2.613,4.048 z m 4.706,-14.939 c 1.166,-0.896 2.484,-1.34 3.95,-1.34 1.701,0 3.108,0.413 4.22,1.242 1.121,0.829 1.913,2.034 2.39,3.615 h -12.91 c 0.403,-1.454 1.185,-2.627 2.35,-3.517 z"
 id="path3804" />
<path
 d="m 427.767,232.199 c 0,-2.474 0.423,-4.19 1.269,-5.14 0.851,-0.949 2.351,-1.51 4.49,-1.685 v -5.159 c -1.249,0 -2.375,0.249 -3.369,0.745 -0.988,0.497 -1.903,1.276 -2.739,2.341 v -2.739 h -5.179 v 23.748 h 5.528 z"
 id="path3806" />
<path
 d="m 437.888,241.224 c 1.181,1.225 2.519,2.149 4.009,2.774 1.485,0.624 3.118,0.939 4.889,0.939 2.636,0 4.952,-0.715 6.964,-2.149 2.007,-1.432 3.517,-3.443 4.52,-6.032 h -5.956 c -0.58,0.935 -1.357,1.66 -2.341,2.181 -0.983,0.516 -2.1,0.774 -3.339,0.774 -1.859,0 -3.369,-0.492 -4.545,-1.478 -1.17,-0.986 -1.854,-2.333 -2.041,-4.047 h 19.023 c 0,-0.13 0.005,-0.327 0.024,-0.593 0.011,-0.268 0.021,-0.465 0.021,-0.595 0,-1.64 -0.188,-3.093 -0.551,-4.362 -0.369,-1.267 -0.93,-2.41 -1.697,-3.433 -1.249,-1.699 -2.77,-3.015 -4.555,-3.952 -1.79,-0.935 -3.708,-1.401 -5.764,-1.401 -1.628,0 -3.207,0.344 -4.731,1.035 -1.524,0.691 -2.892,1.68 -4.102,2.958 -1.111,1.166 -1.948,2.479 -2.513,3.942 -0.571,1.46 -0.856,3.017 -0.856,4.672 0,1.613 0.315,3.187 0.93,4.719 0.619,1.532 1.49,2.882 2.611,4.048 z m 4.707,-14.939 c 1.165,-0.896 2.483,-1.34 3.954,-1.34 1.697,0 3.104,0.413 4.22,1.242 1.111,0.829 1.913,2.034 2.386,3.615 h -12.91 c 0.401,-1.454 1.189,-2.627 2.35,-3.517 z"
 id="path3808" />
<path
 d="m 471.637,244.937 c 1.338,0 2.527,-0.261 3.575,-0.787 1.038,-0.526 1.968,-1.328 2.774,-2.408 v 2.567 h 5.479 v -23.748 h -5.439 v 10.299 c 0,3.167 -0.398,5.41 -1.195,6.735 -0.802,1.326 -2.125,1.987 -3.964,1.987 -1.8,0 -3.069,-0.59 -3.802,-1.771 -0.733,-1.18 -1.102,-3.376 -1.102,-6.585 v -10.665 h -5.588 v 13.751 c 0,3.428 0.797,6.054 2.396,7.881 1.599,1.827 3.89,2.744 6.866,2.744 z"
 id="path3810" />
<path
 d="m 521.22,222.827 c -1.549,-1.827 -3.782,-2.739 -6.688,-2.739 -1.412,0 -2.7,0.344 -3.865,1.035 -1.166,0.691 -2.219,1.741 -3.153,3.15 -0.979,-1.436 -2.149,-2.496 -3.511,-3.172 -1.354,-0.676 -2.996,-1.013 -4.909,-1.013 -1.337,0 -2.528,0.258 -3.575,0.775 -1.043,0.519 -1.967,1.318 -2.77,2.397 v -2.698 h -5.399 v 23.748 h 5.336 v -10.168 c 0,-3.167 0.398,-5.402 1.205,-6.703 0.807,-1.301 2.13,-1.955 3.974,-1.955 1.814,0 3.084,0.583 3.812,1.751 0.724,1.166 1.087,3.354 1.087,6.561 v 10.515 h 5.489 v -10.168 c 0,-3.167 0.388,-5.402 1.175,-6.703 0.782,-1.301 2.086,-1.955 3.92,-1.955 1.756,0 2.985,0.58 3.699,1.738 0.713,1.158 1.066,3.35 1.066,6.573 v 101.632 l -8.872,-3.249 -14.321,4.919 -13.322,-4.919 -14.316,4.919 -14.308,-4.919 -14.316,4.919 -14.317,-4.919 -14.312,4.919 -14.312,-4.919 -14.322,4.919 -14.312,-4.919 -14.307,4.919 -14.312,-4.919 -14.317,4.919 -8.867,-2.847 v -91.173 c 2.019,1.426 4.363,2.143 7.033,2.143 3.319,0 6.167,-1.165 8.562,-3.469 0.003,-0.003 0.007,-0.005 0.01,-0.008 0.004,-0.003 0.007,-0.007 0.01,-0.01 0.107,-0.104 0.219,-0.196 0.325,-0.305 0.076,-0.078 0.139,-0.16 0.213,-0.238 0.521,-0.539 0.988,-1.12 1.398,-1.743 0.006,-0.01 0.012,-0.02 0.018,-0.029 0.197,-0.302 0.385,-0.612 0.557,-0.934 0.09,-0.165 0.168,-0.335 0.25,-0.503 0.065,-0.137 0.14,-0.265 0.201,-0.405 0.018,-0.041 0.029,-0.083 0.046,-0.124 0.122,-0.285 0.226,-0.576 0.325,-0.869 0.034,-0.101 0.073,-0.199 0.104,-0.3 0.09,-0.29 0.163,-0.587 0.231,-0.885 0.029,-0.126 0.065,-0.25 0.09,-0.376 0.053,-0.27 0.089,-0.546 0.126,-0.823 0.02,-0.15 0.047,-0.298 0.062,-0.449 0.045,-0.459 0.072,-0.926 0.072,-1.404 0,-3.659 -1.239,-6.699 -3.713,-9.119 -2.474,-2.424 -5.592,-3.637 -9.359,-3.637 -3.315,0 -6.147,1.22 -8.489,3.654 -1.616,1.681 -2.661,3.629 -3.161,5.83 -0.299,0.896 -0.351,1.586 -0.351,2.142 0,0.914 0,107.376 0,107.376 l 14.307,4.643 14.317,-4.918 14.312,4.918 14.307,-4.918 14.312,4.918 14.322,-4.918 14.312,4.918 14.312,-4.918 14.317,4.918 14.316,-4.918 14.308,4.918 14.316,-4.918 13.322,4.918 14.321,-4.918 14.316,5.41 v -113.04 c -10e-4,-3.412 -0.778,-6.034 -2.337,-7.861 z m -205.731,9.502 c 0,-1.93 0.644,-3.558 1.923,-4.891 1.284,-1.331 2.833,-1.997 4.643,-1.997 2.061,0 3.763,0.662 5.115,1.987 1.357,1.323 2.031,2.985 2.031,4.987 0,1.928 -0.674,3.583 -2.017,4.965 -1.348,1.382 -2.971,2.073 -4.869,2.073 -1.928,0 -3.551,-0.679 -4.859,-2.041 -1.312,-1.36 -1.967,-3.054 -1.967,-5.083 z"
 id="path3812" />
</g>
<g
 id="g3848">
<path
 d="m 309.962,371.109 h 3.212 c 1.875,0 3.01,1.111 3.01,2.718 v 0.022 c 0,1.819 -1.415,2.763 -3.178,2.763 h -1.314 v 2.358 h -1.729 v -7.861 z m 3.1,3.965 c 0.865,0 1.37,-0.518 1.37,-1.191 v -0.021 c 0,-0.775 -0.539,-1.191 -1.404,-1.191 h -1.336 v 2.404 h 1.37 z"
 id="path3816" />
<path
 d="m 322.961,375.602 v -4.492 h 1.729 v 4.447 c 0,1.28 0.64,1.943 1.696,1.943 1.056,0 1.696,-0.641 1.696,-1.887 v -4.504 h 1.729 v 4.436 c 0,2.381 -1.336,3.549 -3.448,3.549 -2.112,0 -3.402,-1.179 -3.402,-3.492 z"
 id="path3818" />
<path
 d="m 337.196,371.109 h 3.594 c 1,0 1.774,0.281 2.291,0.797 0.438,0.438 0.674,1.057 0.674,1.797 v 0.023 c 0,1.269 -0.685,2.066 -1.685,2.437 l 1.92,2.808 h -2.021 l -1.685,-2.516 h -1.359 v 2.516 h -1.729 z m 3.482,3.819 c 0.842,0 1.325,-0.449 1.325,-1.111 v -0.023 c 0,-0.74 -0.517,-1.123 -1.359,-1.123 h -1.718 v 2.258 h 1.752 z"
 id="path3820" />
<path
 d="m 350.937,371.109 h 5.93 v 1.539 h -4.211 v 1.594 h 3.706 v 1.539 h -3.706 v 1.65 h 4.268 v 1.539 h -5.986 v -7.861 z"
 id="path3822" />
<path
 d="m 372.946,375.602 v -4.492 h 1.729 v 4.447 c 0,1.28 0.64,1.943 1.696,1.943 1.056,0 1.696,-0.641 1.696,-1.887 v -4.504 h 1.729 v 4.436 c 0,2.381 -1.336,3.549 -3.448,3.549 -2.112,0 -3.402,-1.179 -3.402,-3.492 z"
 id="path3824" />
<path
 d="m 388.337,372.704 h -2.392 v -1.595 h 6.514 v 1.595 h -2.392 v 6.267 h -1.729 v -6.267 z"
 id="path3826" />
<path
 d="m 399.258,371.109 h 1.729 v 7.861 h -1.729 z"
 id="path3828" />
<path
 d="m 408.572,371.109 h 1.729 v 6.289 h 3.919 v 1.572 h -5.649 v -7.861 z"
 id="path3830" />
<path
 d="m 421.223,371.109 h 1.729 v 7.861 h -1.729 z"
 id="path3832" />
<path
 d="M 431.693,372.704 H 429.3 v -1.595 h 6.514 v 1.595 h -2.393 v 6.267 h -1.729 v -6.267 z"
 id="path3834" />
<path
 d="m 444.523,375.871 -3.021,-4.762 h 2.021 l 1.875,3.156 1.91,-3.156 h 1.965 l -3.021,4.729 v 3.133 h -1.729 z"
 id="path3836" />
<path
 d="m 466.791,372.704 h -2.392 v -1.595 h 6.514 v 1.595 h -2.392 v 6.267 h -1.73 z"
 id="path3838" />
<path
 d="m 476.049,375.062 v -0.022 c 0,-2.235 1.764,-4.065 4.189,-4.065 2.425,0 4.166,1.809 4.166,4.043 v 0.022 c 0,2.235 -1.763,4.065 -4.188,4.065 -2.425,0 -4.167,-1.808 -4.167,-4.043 z m 6.548,0 v -0.022 c 0,-1.348 -0.988,-2.471 -2.381,-2.471 -1.393,0 -2.358,1.101 -2.358,2.448 v 0.022 c 0,1.348 0.988,2.471 2.381,2.471 1.393,0 2.358,-1.1 2.358,-2.448 z"
 id="path3840" />
<path
 d="m 490.217,371.109 h 1.729 v 3.437 l 3.189,-3.437 h 2.089 l -3.201,3.336 3.348,4.525 h -2.078 l -2.438,-3.347 -0.909,0.943 v 2.403 h -1.729 z"
 id="path3842" />
<path
 d="m 503.587,371.109 h 5.93 v 1.539 h -4.212 v 1.594 h 3.707 v 1.539 h -3.707 v 1.65 h 4.268 v 1.539 h -5.985 v -7.861 z"
 id="path3844" />
<path
 d="m 516.507,371.109 h 1.595 l 3.684,4.84 v -4.84 h 1.707 v 7.861 h -1.471 l -3.808,-4.998 v 4.998 h -1.707 z"
 id="path3846" />
</g>
</g>
</g>
</svg>
