<?xml version="1.0" standalone="no"?>
<!DOCTYPE svg PUBLIC "-//W3C//DTD SVG 20010904//EN"
 "http://www.w3.org/TR/2001/REC-SVG-20010904/DTD/svg10.dtd">
<svg version="1.0" xmlns="http://www.w3.org/2000/svg"
 width="700.000000pt" height="700.000000pt" viewBox="0 0 700.000000 700.000000"
 preserveAspectRatio="xMidYMid meet">
<metadata>
Created by potrace 1.11, written by Peter Selinger 2001-2013
</metadata>
<g transform="translate(0.000000,700.000000) scale(0.100000,-0.100000)"
fill="#000000" stroke="none">
<path d="M2589 6776 c-2 -2 -37 -7 -77 -10 -40 -4 -78 -9 -85 -11 -7 -2 -29
-6 -49 -9 -158 -23 -427 -127 -608 -235 -235 -141 -472 -377 -623 -622 -125
-203 -226 -489 -252 -709 -3 -30 -9 -68 -12 -85 -3 -16 -7 -1069 -7 -2338 -1
-2052 0 -2310 14 -2316 11 -5 3557 -7 3675 -2 20 1 20 8 20 314 l0 312 -1538
3 -1537 2 -1 33 c0 41 0 500 0 507 1 3 688 5 1528 4 841 0 1533 3 1538 7 6 5
9 118 9 311 -1 166 -2 306 -3 309 0 3 -686 5 -1523 4 -838 0 -1530 1 -1538 3
-13 3 -15 76 -13 600 1 328 2 616 2 640 l1 43 58 -49 c106 -92 288 -201 447
-269 57 -25 218 -79 255 -87 50 -10 186 -35 240 -45 67 -11 387 -11 449 1 25
5 64 11 86 14 114 14 320 77 445 136 36 17 79 37 95 45 17 7 39 19 49 26 11 6
52 32 90 56 289 180 542 466 686 776 82 176 136 358 161 540 20 143 16 421 -7
539 -2 12 -7 41 -10 66 -3 25 -8 48 -10 52 -3 4 -14 42 -24 85 -53 206 -163
431 -304 618 -215 286 -486 490 -831 625 -103 41 -267 84 -355 95 -30 4 -59
10 -64 13 -10 6 -371 13 -377 8z m317 -639 c6 -3 33 -9 60 -13 75 -10 243 -68
330 -114 396 -209 645 -608 658 -1051 9 -291 -78 -551 -266 -799 -44 -59 -169
-176 -239 -225 -143 -102 -285 -167 -430 -199 -41 -9 -85 -19 -99 -22 -42 -10
-307 -13 -347 -4 -21 5 -58 11 -82 15 -55 8 -199 55 -275 90 -121 55 -244 141
-342 239 -60 60 -156 178 -183 226 -98 170 -152 325 -176 505 -6 49 -8 252 -2
263 3 4 8 34 11 67 19 176 122 409 252 571 200 251 488 411 824 457 42 6 295
1 306 -6z"/>
</g>
</svg>
