<?xml version="1.0" standalone="no"?>
<!DOCTYPE svg PUBLIC "-//W3C//DTD SVG 20010904//EN"
 "http://www.w3.org/TR/2001/REC-SVG-20010904/DTD/svg10.dtd">
<svg version="1.0" xmlns="http://www.w3.org/2000/svg"
 width="700.000000pt" height="700.000000pt" viewBox="0 0 700.000000 700.000000"
 preserveAspectRatio="xMidYMid meet">
<g transform="translate(0.000000,700.000000) scale(0.100000,-0.100000)"
fill="#000000" stroke="none">
<path d="M5169 4624 l-1816 -626 -1662 571 c-913 315 -1668 574 -1676 577 -13
5 -15 -65 -15 -614 0 -581 1 -620 18 -627 9 -3 763 -263 1676 -577 l1659 -570
1651 567 c908 312 1729 595 1824 627 l172 60 0 619 c0 341 -3 619 -7 618 -5 0
-825 -282 -1824 -625z"/>
<path d="M5170 2564 l-1815 -625 -1665 572 c-916 314 -1671 574 -1677 576 -10
4 -13 -123 -13 -616 0 -342 2 -621 4 -621 2 0 756 -259 1676 -575 l1673 -575
1823 627 1824 627 0 618 c0 340 -3 618 -7 617 -5 0 -825 -281 -1823 -625z"/>
</g>
</svg>
