<?xml version="1.0" encoding="UTF-8" standalone="no"?>
<!-- Created with Inkscape (http://www.inkscape.org/) -->

<svg
   xmlns:dc="http://purl.org/dc/elements/1.1/"
   xmlns:cc="http://creativecommons.org/ns#"
   xmlns:rdf="http://www.w3.org/1999/02/22-rdf-syntax-ns#"
   xmlns:svg="http://www.w3.org/2000/svg"
   xmlns="http://www.w3.org/2000/svg"
   xmlns:sodipodi="http://sodipodi.sourceforge.net/DTD/sodipodi-0.dtd"
   xmlns:inkscape="http://www.inkscape.org/namespaces/inkscape"
   width="50mm"
   height="85.404434mm"
   viewBox="0 0 50.000002 85.404434"
   version="1.1"
   id="svg8"
   inkscape:version="0.92.2 (5c3e80d, 2017-08-06)"
   sodipodi:docname="papereum-symbol.svg">
  <defs
     id="defs2" />
  <sodipodi:namedview
     id="base"
     pagecolor="#ffffff"
     bordercolor="#666666"
     borderopacity="1.0"
     inkscape:pageopacity="0.0"
     inkscape:pageshadow="2"
     inkscape:zoom="0.35"
     inkscape:cx="-583.45367"
     inkscape:cy="-274.59946"
     inkscape:document-units="mm"
     inkscape:current-layer="layer1"
     showgrid="false"
     fit-margin-top="0"
     fit-margin-left="0"
     fit-margin-right="0"
     fit-margin-bottom="0"
     inkscape:window-width="1600"
     inkscape:window-height="838"
     inkscape:window-x="-8"
     inkscape:window-y="-8"
     inkscape:window-maximized="1"
     units="mm" />
  <metadata
     id="metadata5">
    <rdf:RDF>
      <cc:Work
         rdf:about="">
        <dc:format>image/svg+xml</dc:format>
        <dc:type
           rdf:resource="http://purl.org/dc/dcmitype/StillImage" />
        <dc:title></dc:title>
      </cc:Work>
    </rdf:RDF>
  </metadata>
  <g
     inkscape:label="Layer 1"
     inkscape:groupmode="layer"
     id="layer1"
     transform="translate(-137.36318,220.8922)">
    <g
       id="layer1-7"
       transform="matrix(3.7804325,0,0,3.7804325,330.97497,-740.84434)"
       style="fill:#000000;fill-opacity:1">
      <path
         id="path815"
         d="m -48.96417,149.11353 c 1.16523,1.02552 2.6924,1.64941 4.36298,1.64941 3.64649,0 6.613,-2.96624 6.613,-6.61247 0,-3.64622 -2.96651,-6.61273 -6.613,-6.61273 -3.64649,0 -6.613,2.96625 -6.613,6.61273 v 15.97845 h 13.20827 v -2.25001 h -10.95825 v -1.93966 h 10.95825 v -2.25002 h -10.95825 z m 4.36298,-9.32577 c 2.40586,0 4.36298,1.95712 4.36298,4.36271 0,2.40559 -1.95712,4.36245 -4.36298,4.36245 -2.40586,0 -4.36298,-1.95686 -4.36298,-4.36245 0,-2.40559 1.95712,-4.36271 4.36298,-4.36271 z"
         style="fill:#000000;fill-opacity:1;stroke-width:0.26458332"
         inkscape:connector-curvature="0" />
    </g>
  </g>
</svg>
